<svg x="0px" y="0px" viewBox="0 0 297 297">
	<g>
		<path d="M148.542,0c-54.677,0-99,29.581-99,90.495c0,54.455,46.145,80.378,46.145,80.378c1.108,0.62,2.522,1.221,3.522,1.797v26.83
		c0,8.284,7.049,15,15.333,15h68c8.284,0,14.667-6.716,14.667-15v-26.83c2-0.576,2.747-1.177,3.855-1.797
		c0,0,46.395-25.923,46.395-80.378C247.458,29.581,203.218,0,148.542,0z M92.521,70.592c-1.132,3.329-4.242,5.427-7.573,5.427
		c-0.854,0-1.723-0.138-2.576-0.428c-4.184-1.423-6.421-5.967-4.999-10.149c3.369-9.907,8.946-18.172,16.578-24.565
		c7.726-6.472,17.592-11.178,29.323-13.988c4.292-1.024,8.613,1.62,9.644,5.917c1.029,4.296-1.62,8.614-5.917,9.644
		c-9.171,2.196-17.046,5.895-22.775,10.693C98.871,57.627,94.933,63.498,92.521,70.592z" />
		<path d="M189.292,230.5h-82.5c-4.557,0-8.583,3.693-8.583,8.25v0.5c0,4.557,3.693,8.25,8.25,8.25c-4.557,0-8.25,3.693-8.25,8.25
		v0.5c0,4.557,4.026,8.25,8.583,8.25h8.763c0.269,17.994,14.93,32.5,32.987,32.5c18.058,0,32.719-14.506,32.987-32.5h7.763
		c4.557,0,7.917-3.693,7.917-8.25v-0.5c0-4.557-3.693-8.25-8.25-8.25c4.557,0,8.25-3.693,8.25-8.25v-0.5
		C197.209,234.193,193.848,230.5,189.292,230.5z" />
	</g>
</svg>